<svg id="visual" viewBox="0 0 900 600" width="900" height="600" xmlns="http://www.w3.org/2000/svg" xmlns:xlink="http://www.w3.org/1999/xlink" version="1.1"><path d="M0 91L13.7 90C27.3 89 54.7 87 82 88C109.3 89 136.7 93 163.8 93C191 93 218 89 245.2 86C272.3 83 299.7 81 327 75C354.3 69 381.7 59 409 62C436.3 65 463.7 81 491 82C518.3 83 545.7 69 573 70C600.3 71 627.7 87 654.8 94C682 101 709 99 736.2 90C763.3 81 790.7 65 818 64C845.3 63 872.7 77 886.3 84L900 91L900 0L886.3 0C872.7 0 845.3 0 818 0C790.7 0 763.3 0 736.2 0C709 0 682 0 654.8 0C627.7 0 600.3 0 573 0C545.7 0 518.3 0 491 0C463.7 0 436.3 0 409 0C381.7 0 354.3 0 327 0C299.7 0 272.3 0 245.2 0C218 0 191 0 163.8 0C136.7 0 109.3 0 82 0C54.7 0 27.3 0 13.7 0L0 0Z" fill="#6198ff"></path><path d="M0 373L13.7 347C27.3 321 54.7 269 82 264C109.3 259 136.7 301 163.8 299C191 297 218 251 245.2 224C272.3 197 299.7 189 327 189C354.3 189 381.7 197 409 200C436.3 203 463.7 201 491 200C518.3 199 545.7 199 573 218C600.3 237 627.7 275 654.8 277C682 279 709 245 736.2 229C763.3 213 790.7 215 818 218C845.3 221 872.7 225 886.3 227L900 229L900 89L886.3 82C872.7 75 845.3 61 818 62C790.7 63 763.3 79 736.2 88C709 97 682 99 654.8 92C627.7 85 600.3 69 573 68C545.7 67 518.3 81 491 80C463.7 79 436.3 63 409 60C381.7 57 354.3 67 327 73C299.7 79 272.3 81 245.2 84C218 87 191 91 163.8 91C136.7 91 109.3 87 82 86C54.7 85 27.3 87 13.7 88L0 89Z" fill="#3c80ff"></path><path d="M0 487L13.7 477C27.3 467 54.7 447 82 439C109.3 431 136.7 435 163.8 441C191 447 218 455 245.2 444C272.3 433 299.7 403 327 388C354.3 373 381.7 373 409 381C436.3 389 463.7 405 491 416C518.3 427 545.7 433 573 429C600.3 425 627.7 411 654.8 412C682 413 709 429 736.2 419C763.3 409 790.7 373 818 365C845.3 357 872.7 377 886.3 387L900 397L900 227L886.3 225C872.7 223 845.3 219 818 216C790.7 213 763.3 211 736.2 227C709 243 682 277 654.8 275C627.7 273 600.3 235 573 216C545.7 197 518.3 197 491 198C463.7 199 436.3 201 409 198C381.7 195 354.3 187 327 187C299.7 187 272.3 195 245.2 222C218 249 191 295 163.8 297C136.7 299 109.3 257 82 262C54.7 267 27.3 319 13.7 345L0 371Z" fill="#0066ff"></path><path d="M0 529L13.7 523C27.3 517 54.7 505 82 503C109.3 501 136.7 509 163.8 511C191 513 218 509 245.2 502C272.3 495 299.7 485 327 480C354.3 475 381.7 475 409 473C436.3 471 463.7 467 491 476C518.3 485 545.7 507 573 503C600.3 499 627.7 469 654.8 467C682 465 709 491 736.2 491C763.3 491 790.7 465 818 461C845.3 457 872.7 475 886.3 484L900 493L900 395L886.3 385C872.7 375 845.3 355 818 363C790.7 371 763.3 407 736.2 417C709 427 682 411 654.8 410C627.7 409 600.3 423 573 427C545.7 431 518.3 425 491 414C463.7 403 436.3 387 409 379C381.7 371 354.3 371 327 386C299.7 401 272.3 431 245.2 442C218 453 191 445 163.8 439C136.7 433 109.3 429 82 437C54.7 445 27.3 465 13.7 475L0 485Z" fill="#0059dd"></path><path d="M0 601L13.7 601C27.3 601 54.7 601 82 601C109.3 601 136.7 601 163.8 601C191 601 218 601 245.2 601C272.3 601 299.7 601 327 601C354.3 601 381.7 601 409 601C436.3 601 463.7 601 491 601C518.3 601 545.7 601 573 601C600.3 601 627.7 601 654.8 601C682 601 709 601 736.2 601C763.3 601 790.7 601 818 601C845.3 601 872.7 601 886.3 601L900 601L900 491L886.3 482C872.7 473 845.3 455 818 459C790.7 463 763.3 489 736.2 489C709 489 682 463 654.8 465C627.7 467 600.3 497 573 501C545.7 505 518.3 483 491 474C463.7 465 436.3 469 409 471C381.7 473 354.3 473 327 478C299.7 483 272.3 493 245.2 500C218 507 191 511 163.8 509C136.7 507 109.3 499 82 501C54.7 503 27.3 515 13.7 521L0 527Z" fill="#004cbb"></path></svg>